<?xml version="1.0" encoding="UTF-8" standalone="no"?>
<!-- Creator: CorelDRAW X6 -->

<svg
   xmlns:dc="http://purl.org/dc/elements/1.1/"
   xmlns:cc="http://creativecommons.org/ns#"
   xmlns:rdf="http://www.w3.org/1999/02/22-rdf-syntax-ns#"
   xmlns:svg="http://www.w3.org/2000/svg"
   xmlns="http://www.w3.org/2000/svg"
   xmlns:sodipodi="http://sodipodi.sourceforge.net/DTD/sodipodi-0.dtd"
   xmlns:inkscape="http://www.inkscape.org/namespaces/inkscape"
   xml:space="preserve"
   width="117mm"
   height="80mm"
   version="1.1"
   style="clip-rule:evenodd;fill-rule:evenodd;image-rendering:optimizeQuality;shape-rendering:geometricPrecision;text-rendering:geometricPrecision"
   viewBox="0 0 11700 8000"
   id="svg2"
   inkscape:version="0.91 r13725"
   sodipodi:docname="bazis-logo.svg"><metadata
   id="metadata39"><rdf:RDF><cc:Work
       rdf:about=""><dc:format>image/svg+xml</dc:format><dc:type
         rdf:resource="http://purl.org/dc/dcmitype/StillImage" /><dc:title></dc:title></cc:Work></rdf:RDF></metadata><sodipodi:namedview
   pagecolor="#ffffff"
   bordercolor="#666666"
   borderopacity="1"
   objecttolerance="10"
   gridtolerance="10"
   guidetolerance="10"
   inkscape:pageopacity="0"
   inkscape:pageshadow="2"
   inkscape:window-width="1920"
   inkscape:window-height="1018"
   id="namedview37"
   showgrid="false"
   inkscape:zoom="1.7940591"
   inkscape:cx="117.28882"
   inkscape:cy="93.051832"
   inkscape:window-x="-8"
   inkscape:window-y="-8"
   inkscape:window-maximized="1"
   inkscape:current-layer="svg2" />
 <defs
   id="defs4">
  <style
   type="text/css"
   id="style6">
   <![CDATA[
    .fil1 {fill:none}
    .fil2 {fill:#FEFEFE}
    .fil0 {fill:#264796}
   ]]>
  </style>
 </defs>
 <g
   id="Слой_x0020_1"
   transform="translate(-4666,-3495.0001)">
  <metadata
   id="CorelCorpID_0Corel-Layer" />
  <rect
   class="fil0"
   x="4666"
   y="9472"
   width="11662"
   height="2023"
   id="rect10"
   style="fill:#264796" />
  <path
   class="fil0"
   d="m 4666,9198 11655,0 0,-5654 -11655,0 0,5654 z M 15574,6353 c 0,1418 -2280,2568 -5094,2568 -2813,0 -5094,-1149 -5094,-2568 0,-1418 2281,-2568 5093,-2568 2813,0 5094,1149 5094,2568 z"
   id="path12"
   inkscape:connector-curvature="0"
   style="fill:#264796" />
  <path
   class="fil0"
   d="m 14956,5266 c -243,-233 -517,-429 -813,-582 l -3014,0 c -125,0 -227,105 -227,235 l 0,565 c 0,90 51,173 131,212 l 2676,1301 c 79,39 130,121 130,212 0,129 -102,234 -227,234 l -2137,0 c -376,0 -681,-315 -681,-704 l 0,-2010 c 0,0 3,-282 -168,-495 -171,-213 -514,-208 -514,-208 -10,0 -69,-1 -89,0 -1395,114 -2818,482 -3957,1373 -43,44 -67,104 -67,166 0,91 51,174 130,212 l 2507,1219 c 79,39 130,121 130,212 0,129 -102,234 -227,234 l -2529,0 c 316,297 679,536 1072,708 l 2525,0 c 208,0 377,-174 377,-389 l 0,-396 c 0,-151 -85,-288 -217,-352 L 7091,5712 c -80,-39 -130,-121 -130,-212 0,-129 102,-235 227,-235 l 2219,0 c 376,0 681,315 681,704 l 0,2008 c 0,389 305,704 681,704 7,0 15,0 22,0 35,1 69,1 103,1 1434,0 3500,-802 3982,-1360 41,-47 69,-105 69,-168 0,-91 -51,-174 -130,-213 L 12286,5712 c -80,-39 -130,-121 -130,-212 0,-129 102,-235 227,-235 l 2572,0 z"
   id="path14"
   inkscape:connector-curvature="0"
   style="fill:#264796" />
  <g
   id="_215126760">
   <line
   class="fil1"
   x1="4880"
   y1="11208"
   x2="6598"
   y2="11208"
   id="line17"
   style="fill:none" />
   <path
   class="fil2"
   d="m 6523,10586 -1344,0 0,349 1344,0 75,-25 29,-36 20,-39 13,-33 6,-41 -4,-36 -15,-39 -16,-34 -34,-41 -36,-16 -39,-9 z m 75,622 -1718,0 0,-1469 2066,0 0,274 -1767,0 0,299 1419,0 63,18 65,23 62,36 59,47 45,58 29,66 17,69 8,55 5,83 -5,67 -25,124 -29,63 -46,61 -41,45 -61,35 -66,31 -81,13 z"
   id="path19"
   inkscape:connector-curvature="0"
   style="fill:#fefefe" />
   <line
   class="fil1"
   x1="9211"
   y1="11208"
   x2="7494"
   y2="11208"
   id="line21"
   style="fill:none" />
   <path
   class="fil2"
   d="m 9211,10038 -25,-124 -50,-100 -100,-50 -100,-25 -1792,0 0,274 1767,0 0,299 -1419,0 -124,50 -100,75 -100,124 -25,124 0,149 25,124 100,124 100,75 124,50 1718,0 0,-1170 z m -299,896 0,-349 -1319,0 -100,25 -50,75 -25,75 25,75 50,75 100,25 1319,0 z"
   id="path23"
   inkscape:connector-curvature="0"
   style="fill:#fefefe" />
   <line
   class="fil1"
   x1="9411"
   y1="10586"
   x2="11078"
   y2="10586"
   id="line25"
   style="fill:none" />
   <line
   class="fil1"
   x1="11078"
   y1="10312"
   x2="9411"
   y2="10312"
   id="line27"
   style="fill:none" />
   <line
   class="fil1"
   x1="11999"
   y1="11208"
   x2="11701"
   y2="11208"
   id="line29"
   style="fill:none" />
   <polygon
   class="fil2"
   points="11999,11208 11701,11208 11701,9739 11999,9739 11999,10785 13493,9739 13792,9739 13792,11208 13493,11208 13493,10113 "
   id="polygon31"
   style="fill:#fefefe" />
   <polygon
   class="fil2"
   points="14514,10013 14439,10038 14364,10088 14315,10163 14290,10237 14290,10710 14315,10785 14364,10860 14439,10909 14514,10934 16082,10934 16082,11208 14364,11208 14240,11183 14140,11133 14066,11059 14016,10934 13991,10835 13991,10113 14016,10013 14066,9889 14140,9814 14240,9764 14364,9739 16082,9739 16082,10013 "
   id="polygon33"
   style="fill:#fefefe" />
   <polygon
   class="fil2"
   points="11228,11183 11078,11208 9411,11208 9411,10959 11078,10959 11153,10934 11228,10885 11253,10810 11253,10735 11228,10660 11153,10611 11078,10586 9411,10586 9411,10312 11078,10312 11153,10287 11203,10237 11228,10163 11203,10088 11153,10038 11078,10013 9411,10013 9411,9739 11078,9739 11228,9764 11352,9839 11427,9939 11477,10063 11502,10212 11477,10337 11402,10461 11477,10586 11502,10710 11502,10860 11452,11009 11352,11109 "
   id="polygon35"
   style="fill:#fefefe" />
  </g>
 </g>
</svg>